<?xml version="1.0" encoding="UTF-8"?>
<svg version="1.1" xmlns="http://www.w3.org/2000/svg" width="372" height="372">
<path d="M0 0 C0.99 0 1.98 0 3 0 C3.29132813 0.81082031 3.58265625 1.62164062 3.8828125 2.45703125 C6.41424573 9.29508516 9.19294858 15.43059968 13.15625 21.5625 C14 24 14 24 12.65625 26.8125 C12.1096875 27.534375 11.563125 28.25625 11 29 C12.01578125 28.9278125 13.0315625 28.855625 14.078125 28.78125 C22.39933534 28.21251231 30.65398389 27.85773836 39 28 C38.42624451 31.39839789 37.42519574 32.84926479 34.875 35.125 C24.23734358 45.39208232 18.02408161 58.29092751 17.75878906 73.11669922 C17.4482977 84.91666475 17.4482977 84.91666475 22.875 94.9375 C25.20862071 96.10431036 27.54592376 97.1138058 30 98 C30.3125 100.25 30.3125 100.25 30 103 C27.9375 105.3125 27.9375 105.3125 25 107 C22.69 107 20.38 107 18 107 C17.67 120.53 17.34 134.06 17 148 C20.0525 146.02 23.105 144.04 26.25 142 C27.18489258 141.39414063 28.11978516 140.78828125 29.08300781 140.1640625 C30.77752641 139.06370761 32.46157813 137.9471662 34.13842773 136.82006836 C37 135 37 135 40.31665039 133.30688477 C46.72257509 129.86344903 46.72257509 129.86344903 49.99658203 123.66748047 C50.29158151 119.71140924 50.19577593 115.88488855 49.9375 111.9375 C49.90295603 110.58801473 49.87362098 109.23838563 49.84960938 107.88867188 C49.4853463 96.95507203 49.4853463 96.95507203 44.02734375 87.8203125 C43.33769531 87.26085937 42.64804688 86.70140625 41.9375 86.125 C40.89916016 85.26261719 40.89916016 85.26261719 39.83984375 84.3828125 C38.04518232 82.94763814 38.04518232 82.94763814 36 82 C36.125 80.125 36.125 80.125 37 78 C40.98865469 76.25496357 44.4783593 75.83911249 48.80981445 75.82592773 C56.68226013 75.80810382 56.68226013 75.80810382 63.3125 71.9375 C64.5444162 70.62758037 65.77341815 69.31491593 67 68 C76.33621619 60.16054228 87.78009515 53.72508636 100.3125 53.9375 C101.529375 53.958125 102.74625 53.97875 104 54 C102.52928347 57.48614288 100.59594597 59.47046563 97.8125 62 C88.26968811 71.34304288 82.44715717 83.71020956 81.86577892 97.08863831 C81.86150544 98.1931987 81.85723196 99.29775909 81.85282898 100.43579102 C81.84567368 101.71117233 81.83851837 102.98655365 81.83114624 104.30058289 C81.82830645 105.70169043 81.82559466 107.10279824 81.82299805 108.50390625 C81.81672672 109.9894476 81.81007933 111.47498739 81.80308533 112.96052551 C81.78211584 117.82783939 81.77168714 122.6951533 81.76171875 127.5625 C81.75766804 129.24432389 81.75355102 130.92614762 81.74936867 132.60797119 C81.73032978 140.51450039 81.71609804 148.42102036 81.7077567 156.32756805 C81.69799972 165.42343947 81.67171508 174.51906654 81.63125581 183.61485195 C81.60098413 190.66481692 81.58627726 197.7147123 81.58297569 204.76474094 C81.58063712 208.96600273 81.57183414 213.16700312 81.54651451 217.36819458 C81.52303533 221.32786633 81.51907907 225.28710826 81.52927589 229.24683189 C81.52976664 230.68904752 81.5235846 232.13128577 81.50971985 233.57343483 C81.36974796 249.0140047 84.44839428 263.14881573 95.453125 274.5390625 C97.0333076 276.06458469 98.63920517 277.56423166 100.27734375 279.02734375 C102 281 102 281 102 285 C85.97127313 284.2907643 74.48988454 277.73602334 63 267 C62.59007812 266.44828125 62.18015625 265.8965625 61.7578125 265.328125 C58.92076665 263.18457924 55.67634153 263.5031507 52.25 263.4375 C46.80870297 263.30045241 42.19279668 262.69241672 37 261 C36.67 259.68 36.34 258.36 36 257 C36.69867188 256.46890625 37.39734375 255.9378125 38.1171875 255.390625 C39.02726563 254.68421875 39.93734375 253.9778125 40.875 253.25 C41.77992188 252.55390625 42.68484375 251.8578125 43.6171875 251.140625 C47.67928355 247.49139773 48.24916096 244.30428889 49 239 C49.0893951 236.89466113 49.1306119 234.78692228 49.1328125 232.6796875 C49.13506836 231.43864258 49.13732422 230.19759766 49.13964844 228.91894531 C49.13560589 227.57096076 49.13070055 226.22297856 49.125 224.875 C49.12278442 224.18901733 49.12056885 223.50303467 49.11828613 222.79626465 C49.10157262 218.32758505 49.06687118 213.85923576 49.02282715 209.39074707 C48.99943837 206.94117933 48.98071574 204.49159899 48.96191406 202.04199219 C48.92671568 197.91162988 48.86691138 193.78220212 48.79046631 189.65240479 C48.7635754 188.05594452 48.74322823 186.4593601 48.72955322 184.86273193 C48.70837431 182.621229 48.66205717 180.38157964 48.609375 178.140625 C48.58842773 176.85704102 48.56748047 175.57345703 48.54589844 174.25097656 C47.91111003 170.4706356 46.96600754 169.33351932 44 167 C41.5461923 165.28233461 40.40002578 164.973651 37.390625 165.171875 C32.97622114 166.25004737 29.51507437 168.26573819 25.625 170.5625 C24.88894531 170.98724609 24.15289062 171.41199219 23.39453125 171.84960938 C21.59160301 172.89156141 19.79512947 173.94466854 18 175 C17.95343919 183.80648701 17.91801108 192.61293093 17.89637566 201.41951466 C17.88598613 205.50978286 17.87191641 209.59996618 17.84912109 213.69018555 C17.82721884 217.64539601 17.81539515 221.60052538 17.81024551 225.55579185 C17.80658069 227.0566911 17.79942525 228.55758645 17.78853989 230.0584507 C17.72936285 238.56433291 18.02952187 246.68798804 20 255 C20.15322723 255.73873856 20.30645447 256.47747711 20.46432495 257.23860168 C20.82370569 259.14568464 20.82370569 259.14568464 22.62109375 259.921875 C23.79865234 260.45554687 23.79865234 260.45554687 25 261 C27.38248356 262.72116388 29.72813463 264.46592495 32.0625 266.25 C33.50720654 267.34455027 34.95254503 268.43826682 36.3984375 269.53125 C37.53104004 270.38783203 37.53104004 270.38783203 38.68652344 271.26171875 C42.49601534 274.12406387 46.34371832 276.93397815 50.1875 279.75 C57.01467826 284.76110562 63.77438399 289.85349018 70.5 295 C77.52033932 300.37053342 84.57469657 305.6899042 91.6875 310.9375 C92.49574219 311.53498047 93.30398438 312.13246094 94.13671875 312.74804688 C94.87921875 313.29396484 95.62171875 313.83988281 96.38671875 314.40234375 C97.03858154 314.88179443 97.69044434 315.36124512 98.36206055 315.85522461 C100.00757108 317.06454632 100.00757108 317.06454632 102 318 C104.62794575 316.53790266 104.62794575 316.53790266 107 314 C107.50329 311.0905454 107.67934804 308.76028391 107.63923645 305.85028076 C107.64759213 305.02198549 107.6559478 304.19369021 107.66455668 303.34029508 C107.68652964 300.56074726 107.67286678 297.78251522 107.65942383 295.00292969 C107.66787434 293.01220697 107.6785172 291.02149253 107.69119263 289.03079224 C107.71940005 283.62199593 107.7168565 278.21359536 107.70889878 272.80474758 C107.7057792 267.15389052 107.73079201 261.50316071 107.75285339 255.85235596 C107.79034624 245.14976122 107.80244449 234.44729356 107.8054778 223.74463964 C107.81016294 211.56092042 107.84306879 199.37732895 107.87837565 187.19366598 C107.95037599 162.12912614 107.98683745 137.06463489 108 112 C111.32967314 112.74872111 113.3801568 113.7851176 116.125 115.84375 C116.90891113 116.42672852 117.69282227 117.00970703 118.50048828 117.61035156 C119.32532715 118.23393555 120.15016602 118.85751953 121 119.5 C122.26626221 120.44697754 122.26626221 120.44697754 123.55810547 121.41308594 C125.25253544 122.68107951 126.94511085 123.95155545 128.63574219 125.22460938 C130.7094455 126.78181409 132.79219889 128.32500006 134.8828125 129.859375 C135.96358342 130.65619337 137.04431615 131.45306354 138.125 132.25 C139.05570312 132.93578125 139.98640625 133.6215625 140.9453125 134.328125 C143 136 143 136 144 138 C144.1054897 140.30698192 144.14397779 142.61709673 144.15390015 144.9264679 C144.1582824 145.64743768 144.16266465 146.36840747 144.1671797 147.11122483 C144.18058868 149.53940312 144.18675123 151.96754511 144.19287109 154.39575195 C144.20077036 156.13175624 144.20903919 157.86775887 144.21765137 159.60375977 C144.24388993 165.31525093 144.25917995 171.0267495 144.2734375 176.73828125 C144.27879626 178.70261325 144.28417376 180.66694519 144.28956985 182.63127708 C144.31120048 190.80051316 144.32993837 198.96974724 144.34119225 207.13900471 C144.3574391 218.85658091 144.39063265 230.57382591 144.44759309 242.29127723 C144.48625704 250.5248733 144.50582068 258.75838064 144.51111281 266.99206513 C144.51477089 271.91246111 144.5268406 276.83250398 144.55921555 281.7528019 C144.58923418 286.38136268 144.59563031 291.00935556 144.58383179 295.63799286 C144.58361054 297.33716381 144.59195815 299.03636064 144.60948563 300.73544121 C144.63211387 303.05517481 144.62391429 305.37283795 144.60800171 307.69258118 C144.61296693 309.63965957 144.61296693 309.63965957 144.61803246 311.62607288 C143.5515554 317.44812286 138.91730866 320.21443683 134.41015625 323.63671875 C133.5497876 324.2922876 132.68941895 324.94785645 131.80297852 325.62329102 C130.89862061 326.30447998 129.9942627 326.98566895 129.0625 327.6875 C128.13042725 328.3899585 127.19835449 329.09241699 126.23803711 329.81616211 C124.3660385 331.22367136 122.49244707 332.6290649 120.6171875 334.03222656 C118.30327236 335.77197992 116.00853382 337.53340761 113.71875 339.3046875 C112.5008298 340.22505744 111.28214658 341.14441904 110.0625 342.0625 C109.02222656 342.85785156 107.98195313 343.65320313 106.91015625 344.47265625 C104 346 104 346 100.9765625 346.0078125 C97.42110929 344.80399763 95.21907732 343.19131428 92.3125 340.8125 C91.1645359 339.89231189 90.0146807 338.97447968 88.86328125 338.05859375 C88.24404785 337.56343262 87.62481445 337.06827148 86.98681641 336.55810547 C83.39229212 333.73919984 79.68966766 331.06734714 76 328.375 C68.14690592 322.61907501 60.38483287 316.75154551 52.64892578 310.83935547 C45.37776867 305.28272339 38.08148898 299.76189595 30.73974609 294.29882812 C29.04622832 293.0345123 27.36060058 291.76024779 25.67578125 290.484375 C24.68964844 289.74703125 23.70351562 289.0096875 22.6875 288.25 C21.84574219 287.61578125 21.00398437 286.9815625 20.13671875 286.328125 C17.99465566 284.73604807 17.99465566 284.73604807 15 285 C15.845625 285.9075 16.69125 286.815 17.5625 287.75 C19.00390625 289.296875 19.00390625 289.296875 20 291 C19.75293177 294.92753289 17.240478 298.14983107 15.25 301.4375 C9.62477714 311.02866211 5.97375643 320.81850707 3.7734375 331.734375 C3.51820313 332.48203125 3.26296875 333.2296875 3 334 C2.01 334.33 1.02 334.66 0 335 C-0.1451001 334.43716309 -0.2902002 333.87432617 -0.43969727 333.29443359 C-3.86112594 320.21383327 -7.467162 308.03090948 -15.21484375 296.78515625 C-17 294 -17 294 -16.9375 291.375 C-15.94575599 288.86258184 -14.74669175 287.05046423 -13 285 C-16.61642461 286.30048376 -19.38670534 287.84488901 -22.4140625 290.203125 C-23.24744141 290.84636719 -24.08082031 291.48960937 -24.93945312 292.15234375 C-25.82568359 292.84457031 -26.71191406 293.53679687 -27.625 294.25 C-29.52244277 295.71483108 -31.42090037 297.17834845 -33.3203125 298.640625 C-34.27454102 299.37603516 -35.22876953 300.11144531 -36.21191406 300.86914062 C-40.26741429 303.96865078 -44.37892892 306.988532 -48.5 310 C-55.25018996 314.94118149 -61.92183261 319.9752051 -68.5625 325.0625 C-72.03752377 327.71381443 -75.51709729 330.35904544 -79 333 C-79.85706543 333.65081543 -80.71413086 334.30163086 -81.59716797 334.97216797 C-84.0547804 336.82864455 -86.52484011 338.6670107 -89 340.5 C-89.73549072 341.05824463 -90.47098145 341.61648926 -91.22875977 342.19165039 C-91.91639404 342.69559326 -92.60402832 343.19953613 -93.3125 343.71875 C-93.90675781 344.16154297 -94.50101563 344.60433594 -95.11328125 345.06054688 C-97.6047727 346.30113423 -99.24676018 346.33335191 -102 346 C-103.91845703 344.93701172 -103.91845703 344.93701172 -105.7578125 343.4296875 C-106.45712891 342.86926758 -107.15644531 342.30884766 -107.87695312 341.73144531 C-108.61880859 341.11881836 -109.36066406 340.50619141 -110.125 339.875 C-111.7194624 338.59399592 -113.3158853 337.315429 -114.9140625 336.0390625 C-115.74196289 335.37551758 -116.56986328 334.71197266 -117.42285156 334.02832031 C-122.50518486 330.02831794 -127.75190862 326.24954612 -132.98095703 322.44482422 C-133.74005371 321.89068848 -134.49915039 321.33655273 -135.28125 320.765625 C-136.28768555 320.03520996 -136.28768555 320.03520996 -137.31445312 319.29003906 C-139 318 -139 318 -141 316 C-141.29916859 312.981884 -141.29916859 312.981884 -141.36836243 309.02020264 C-141.38347703 308.29333228 -141.39859163 307.56646193 -141.41416425 306.8175652 C-141.46214627 304.36900872 -141.49549453 301.92047992 -141.52856445 299.47167969 C-141.55909116 297.72071298 -141.59022853 295.96975682 -141.62193298 294.21881104 C-141.89739914 278.19878013 -142.03795912 262.1757737 -142.14869404 246.15385056 C-142.23205371 234.31581215 -142.37726809 222.48200405 -142.60482627 210.64584041 C-142.75950753 202.31791188 -142.84073267 193.99113485 -142.86902207 185.66183019 C-142.88799865 180.6903865 -142.93902467 175.72421627 -143.0700016 170.75435638 C-143.89346537 138.10368231 -143.89346537 138.10368231 -136.90292358 130.58410645 C-133.03499691 127.36604935 -128.95446581 125.13633561 -124.35727501 123.13245392 C-120.63274033 121.34315743 -117.6301674 118.78749927 -114.5 116.125 C-109.35369775 112 -109.35369775 112 -106 112 C-105.99853344 113.03221302 -105.99706688 114.06442604 -105.99555588 115.12791824 C-105.95898966 140.22342321 -105.89957797 165.31879442 -105.81609726 190.41418839 C-105.77625789 202.55005368 -105.7438903 214.68585367 -105.72900391 226.82177734 C-105.71601277 237.39726696 -105.68911316 247.97261317 -105.64538693 258.54802203 C-105.62271498 264.14962354 -105.60709275 269.75104781 -105.60811615 275.35269928 C-105.60885938 280.6222573 -105.59104466 285.89142266 -105.55883217 291.16087914 C-105.55029478 293.09747465 -105.5486091 295.03411402 -105.55419731 296.97072029 C-105.56080113 299.61035835 -105.54300444 302.24873379 -105.51898193 304.88824463 C-105.52674235 305.65867387 -105.53450277 306.42910311 -105.54249835 307.22287869 C-105.48576952 310.73201924 -105.25122674 312.66344112 -103.12475967 315.51218796 C-101.08851092 317.25487501 -101.08851092 317.25487501 -98.48486328 316.91674805 C-95.9651689 315.98714966 -94.32027883 315.01706708 -92.2421875 313.33203125 C-91.54440186 312.77596191 -90.84661621 312.21989258 -90.12768555 311.64697266 C-89.38429932 311.04159668 -88.64091309 310.4362207 -87.875 309.8125 C-86.25560443 308.52260472 -84.63445604 307.23490749 -83.01171875 305.94921875 C-82.18075684 305.28970215 -81.34979492 304.63018555 -80.49365234 303.95068359 C-76.62155389 300.92169723 -72.65934477 298.02122357 -68.6875 295.125 C-61.00640816 289.50872631 -53.41458671 283.78551678 -45.8762207 277.97900391 C-41.49390445 274.61452912 -37.08127367 271.32469767 -32.5546875 268.15625 C-31.68392578 267.54007812 -30.81316406 266.92390625 -29.91601562 266.2890625 C-28.27255619 265.13194579 -26.61815457 263.99015086 -24.95117188 262.8671875 C-19.80615601 259.22485718 -17.15170384 256.26818492 -16 250 C-14.33099681 237.84207521 -14.88504969 225.36670349 -14.9375 213.125 C-14.94252726 211.06901151 -14.94708799 209.01302183 -14.95117188 206.95703125 C-14.96207518 201.97132408 -14.97927153 196.9856756 -15 192 C-18.29273703 193.87312476 -21.58398339 195.74885441 -24.875 197.625 C-25.7928125 198.14707031 -26.710625 198.66914063 -27.65625 199.20703125 C-29.51669297 200.26826984 -31.367711 201.34619161 -33.20922852 202.43994141 C-36 204 -36 204 -38.89819336 205.19677734 C-41.85840127 206.53412081 -43.80333483 207.59534306 -46 210 C-47.14059676 214.46241708 -47.14953325 218.69965287 -46.91918945 223.2578125 C-46.81306427 225.36380247 -46.7758559 227.4619397 -46.75195312 229.5703125 C-46.58254749 237.97118721 -46.36710908 245.26701608 -40.51953125 251.75 C-39.62621094 252.4925 -38.73289062 253.235 -37.8125 254 C-36.91144531 254.763125 -36.01039063 255.52625 -35.08203125 256.3125 C-34.39496094 256.869375 -33.70789063 257.42625 -33 258 C-33.33 258.99 -33.66 259.98 -34 261 C-38.07841672 262.89824926 -41.65605987 263.12496814 -46.11474609 263.07275391 C-53.29924126 263.00532082 -53.29924126 263.00532082 -59.72265625 265.81640625 C-61.16410657 267.36249907 -62.55940292 268.9528643 -63.90625 270.58203125 C-70.98060742 278.75185819 -82.51596602 283.27774242 -93 285 C-94.43628457 285.06266512 -95.8750555 285.08686347 -97.3125 285.0625 C-99.1378125 285.0315625 -99.1378125 285.0315625 -101 285 C-99.59117301 281.74611025 -97.92326856 279.81232484 -95.3125 277.4375 C-83.47517806 265.85797818 -79.0652481 252.46258432 -78.85282898 236.27264404 C-78.83782972 233.62273624 -78.82801091 230.97315462 -78.82299805 228.32324219 C-78.81672112 226.85534001 -78.81007326 225.38743937 -78.80308533 223.91954041 C-78.78219472 219.12866288 -78.77169943 214.33778556 -78.76171875 209.546875 C-78.75766606 207.88885737 -78.75354899 206.23083989 -78.74936867 204.57282257 C-78.73035268 196.78216986 -78.71611226 188.99152643 -78.7077567 181.20085502 C-78.69798718 172.24310356 -78.67165999 163.28559937 -78.63125581 154.32793498 C-78.60099942 147.37898586 -78.58627898 140.4301073 -78.58297569 133.48109365 C-78.58063684 129.34194614 -78.57182881 125.20306389 -78.54651451 121.06398773 C-78.5230598 117.16665622 -78.51906945 113.26976147 -78.52927589 109.3723774 C-78.52976711 107.95231476 -78.52357091 106.53222929 -78.50971985 105.11223412 C-78.36933539 89.8511381 -82.05707393 75.15958609 -92.8984375 63.875 C-94.83889964 61.92487141 -96.82236703 60.05325269 -98.83984375 58.1796875 C-101 56 -101 56 -101 54 C-83.79019849 54.60069115 -69.82501291 61.42019903 -58 74 C-58 74.66 -58 75.32 -58 76 C-56.2984375 75.94779297 -56.2984375 75.94779297 -54.5625 75.89453125 C-39.70071538 75.5783581 -39.70071538 75.5783581 -33 79 C-33 79.99 -33 80.98 -33 82 C-34.86328125 83.68359375 -34.86328125 83.68359375 -37.3125 85.4375 C-42.74321699 89.34109461 -42.74321699 89.34109461 -45.57125854 95.21569824 C-46.06089421 98.3954548 -46.12719513 101.42064865 -46.12939453 104.63867188 C-46.13114685 105.28485977 -46.13289917 105.93104767 -46.13470459 106.59681702 C-46.13908551 108.72082245 -46.13619841 110.8447438 -46.1328125 112.96875 C-46.13348662 114.45178239 -46.13445755 115.93481467 -46.13571167 117.41784668 C-46.13718355 120.52125097 -46.13505047 123.62462641 -46.13037109 126.72802734 C-46.12467411 130.69912767 -46.12795584 134.67016039 -46.13394356 138.64125824 C-46.13756293 141.70221462 -46.13640425 144.76315507 -46.13381577 147.82411194 C-46.13315031 149.28809111 -46.13396157 150.75207174 -46.13629532 152.21604919 C-46.13884444 154.26451431 -46.1349495 156.31287105 -46.12939453 158.36132812 C-46.12859894 159.52539185 -46.12780334 160.68945557 -46.12698364 161.88879395 C-46.0105881 164.74058276 -45.79167536 167.25870176 -45 170 C-41.10296723 172.29237222 -37.63018351 172.33854521 -33 173 C-27.06 169.7 -21.12 166.4 -15 163 C-15 144.52 -15 126.04 -15 107 C-17.31 107 -19.62 107 -22 107 C-26.65518576 104.16640867 -26.65518576 104.16640867 -27.6328125 100.859375 C-27.81457031 99.93898437 -27.81457031 99.93898437 -28 99 C-27.38511719 98.70867187 -26.77023438 98.41734375 -26.13671875 98.1171875 C-22.29049356 96.16647042 -19.53101773 94.74674369 -17 91.1875 C-13.09238656 78.73198216 -14.04547976 63.80271894 -19.5 52 C-23.96133717 43.64872846 -30.25197072 36.59254473 -37 30 C-35 28 -35 28 -32.95629883 27.84887695 C-32.13154053 27.89488037 -31.30678223 27.94088379 -30.45703125 27.98828125 C-29.54759766 28.03533203 -28.63816406 28.08238281 -27.70117188 28.13085938 C-26.74791016 28.19080078 -25.79464844 28.25074219 -24.8125 28.3125 C-23.87857422 28.36083984 -22.94464844 28.40917969 -21.98242188 28.45898438 C-16.93600206 28.73953833 -11.98927388 29.19260713 -7 30 C-7.680625 29.2575 -8.36125 28.515 -9.0625 27.75 C-11 25 -11 25 -10.76171875 23.04296875 C-9.97719762 20.93884283 -9.03993444 19.39534988 -7.75 17.5625 C-4.20867603 12.12145705 -2.17897034 6.08257252 0 0 Z " fill="#D1A142" transform="translate(184,12)"/>
</svg>
